<svg width="610" height="610" viewBox="0 0 610 610" fill="none" xmlns="http://www.w3.org/2000/svg">
<rect width="610" height="610" rx="305" fill="#0F172A"/>
<path d="M304.5 153C224.589 153 160 217.589 160 297.5C160 377.411 224.589 442 304.5 442C384.411 442 449 377.411 449 297.5C449 217.589 384.411 153 304.5 153ZM304.5 153C304.5 153 266.5 187 266.5 297.5C266.5 408 304.5 442 304.5 442M304.5 153C304.5 153 342.5 187 342.5 297.5C342.5 408 304.5 442 304.5 442M160 297.5H449" stroke="white" stroke-width="24" stroke-linecap="round"/>
</svg> 